<svg width="375" height="414" viewBox="0 0 375 414" fill="none" xmlns="http://www.w3.org/2000/svg">
<path fill-rule="evenodd" clip-rule="evenodd" d="M191.138 21.5312C223.098 26.5679 254.395 33.975 280.369 53.4097C306.141 72.6929 323.29 100.038 335.85 129.81C349.517 162.206 368.154 198.238 355.272 230.959C342.487 263.435 299.009 267.603 272.664 290.309C242.733 316.106 229.941 365.643 191.138 372.422C152.104 379.242 119.604 344.243 86.1206 322.9C49.9598 299.851 -3.28909 285.85 -11.1798 243.465C-19.2052 200.356 33.9088 171.699 50.4168 131.117C64.9715 95.3364 48.6775 45.3237 79.0375 21.6812C109.349 -1.92372 153.294 15.5672 191.138 21.5312Z" fill="#0C498C"/>
<path fill-rule="evenodd" clip-rule="evenodd" d="M191.138 31.459C223.098 36.4957 254.395 43.9027 280.369 63.3375C306.141 82.6207 323.29 109.966 335.85 139.738C349.517 172.134 368.154 208.165 355.272 240.887C342.487 273.363 299.009 277.53 272.664 300.237C242.733 326.033 229.941 375.571 191.138 382.35C152.104 389.17 119.604 354.17 86.1206 332.828C49.9598 309.779 -3.28909 295.778 -11.1798 253.393C-19.2052 210.284 33.9088 181.626 50.4168 141.044C64.9715 105.264 48.6775 55.2515 79.0375 31.609C109.349 8.00401 153.294 25.4949 191.138 31.459Z" stroke="#307DFB"/>
<path fill-rule="evenodd" clip-rule="evenodd" d="M191.138 41.3867C223.098 46.4234 254.395 53.8305 280.369 73.2652C306.141 92.5484 323.29 119.894 335.85 149.665C349.517 182.062 368.154 218.093 355.272 250.815C342.487 283.29 299.009 287.458 272.664 310.164C242.733 335.961 229.941 385.498 191.138 392.278C152.104 399.098 119.604 364.098 86.1206 342.756C49.9598 319.707 -3.28909 305.706 -11.1798 263.32C-19.2052 220.212 33.9088 191.554 50.4168 150.972C64.9715 115.192 48.6775 65.1792 79.0375 41.5367C109.349 17.9317 153.294 35.4227 191.138 41.3867Z" stroke="#307DFB"/>
<path fill-rule="evenodd" clip-rule="evenodd" d="M191.138 51.3145C223.098 56.3511 254.395 63.7582 280.369 83.1929C306.141 102.476 323.29 129.821 335.85 159.593C349.517 191.989 368.154 228.021 355.272 260.742C342.487 293.218 299.009 297.386 272.664 320.092C242.733 345.889 229.941 395.426 191.138 402.205C152.104 409.025 119.604 374.026 86.1206 352.683C49.9598 329.634 -3.28909 315.633 -11.1798 273.248C-19.2052 230.14 33.9088 201.482 50.4168 160.9C64.9715 125.12 48.6775 75.1069 79.0375 51.4644C109.349 27.8595 153.294 45.3504 191.138 51.3145Z" stroke="#307DFB"/>
<path fill-rule="evenodd" clip-rule="evenodd" d="M191.138 61.2419C223.098 66.2786 254.395 73.6857 280.369 93.1204C306.141 112.404 323.29 139.749 335.85 169.521C349.517 201.917 368.154 237.948 355.272 270.67C342.487 303.146 299.009 307.313 272.664 330.02C242.733 355.816 229.941 405.354 191.138 412.133C152.104 418.953 119.604 383.953 86.1206 362.611C49.9598 339.562 -3.28909 325.561 -11.1798 283.176C-19.2052 240.067 33.9088 211.409 50.4168 170.827C64.9715 135.047 48.6775 85.0344 79.0375 61.3919C109.349 37.787 153.294 55.2779 191.138 61.2419Z" stroke="#307DFB"/>
<path fill-rule="evenodd" clip-rule="evenodd" d="M231.139 40.9409C269.32 38.4328 306.444 56.7302 335.458 81.721C362.979 105.425 380.638 139.081 386.699 174.931C392.221 207.585 379.111 238.96 367.275 269.883C356.086 299.114 342.232 326.204 320.272 348.475C294.555 374.556 267.671 410.051 231.139 407.947C194.54 405.839 176.944 362.571 149.152 338.621C124.454 317.337 88.0166 306.472 77.5303 275.571C67.0113 244.573 85.7203 212.657 95.8422 181.527C105.955 150.425 113.644 118.352 136.307 94.8033C162.16 67.9387 193.97 43.3825 231.139 40.9409Z" fill="#A7C8FD"/>
<path fill-rule="evenodd" clip-rule="evenodd" d="M231.139 40.9409C269.32 38.4328 306.444 56.7302 335.458 81.721C362.979 105.425 380.638 139.081 386.699 174.931C392.221 207.585 379.111 238.96 367.275 269.883C356.086 299.114 342.232 326.204 320.272 348.475C294.555 374.556 267.671 410.051 231.139 407.947C194.54 405.839 176.944 362.571 149.152 338.621C124.454 317.337 88.0166 306.472 77.5303 275.571C67.0113 244.573 85.7203 212.657 95.8422 181.527C105.955 150.425 113.644 118.352 136.307 94.8033C162.16 67.9387 193.97 43.3825 231.139 40.9409Z" stroke="#0F46A5"/>
<path fill-rule="evenodd" clip-rule="evenodd" d="M231.139 40.9409C269.32 38.4328 306.444 56.7302 335.458 81.721C362.979 105.425 380.638 139.081 386.699 174.931C392.221 207.585 379.111 238.96 367.275 269.883C356.086 299.114 342.232 326.204 320.272 348.475C294.555 374.556 267.671 410.051 231.139 407.947C194.54 405.839 176.944 362.571 149.152 338.621C124.454 317.337 88.0166 306.472 77.5303 275.571C67.0113 244.573 85.7203 212.657 95.8422 181.527C105.955 150.425 113.644 118.352 136.307 94.8033C162.16 67.9387 193.97 43.3825 231.139 40.9409Z" stroke="black" stroke-opacity="0.2"/>
<path fill-rule="evenodd" clip-rule="evenodd" d="M231.139 31.0129C269.32 28.5048 306.445 46.8022 335.458 71.793C362.979 95.4975 380.638 129.153 386.699 165.003C392.221 197.657 379.111 229.032 367.275 259.955C356.086 289.186 342.232 316.276 320.272 338.547C294.555 364.628 267.671 400.123 231.139 398.019C194.54 395.911 176.944 352.644 149.152 328.693C124.454 307.409 88.0166 296.544 77.5303 265.643C67.0113 234.645 85.7203 202.729 95.8422 171.599C105.955 140.497 113.644 108.424 136.307 84.8753C162.16 58.0107 193.97 33.4546 231.139 31.0129Z" stroke="#A7C8FD"/>
<path fill-rule="evenodd" clip-rule="evenodd" d="M231.139 21.0852C269.32 18.5771 306.445 36.8745 335.458 61.8653C362.979 85.5698 380.638 119.226 386.699 155.075C392.221 187.729 379.111 219.104 367.275 250.027C356.086 279.258 342.232 306.348 320.272 328.619C294.555 354.7 267.671 390.195 231.139 388.091C194.54 385.984 176.944 342.716 149.152 318.766C124.454 297.481 88.0166 286.616 77.5303 255.715C67.0113 224.718 85.7203 192.802 95.8422 161.672C105.955 130.569 113.644 98.496 136.307 74.9476C162.16 48.0829 193.97 23.5268 231.139 21.0852Z" stroke="#A7C8FD"/>
<path fill-rule="evenodd" clip-rule="evenodd" d="M231.139 11.1577C269.32 8.64957 306.445 26.947 335.458 51.9378C362.979 75.6423 380.638 109.298 386.699 145.148C392.221 177.802 379.111 209.177 367.275 240.1C356.086 269.33 342.232 296.42 320.272 318.692C294.555 344.772 267.671 380.267 231.139 378.164C194.54 376.056 176.944 332.788 149.152 308.838C124.454 287.554 88.0166 276.689 77.5303 245.788C67.0113 214.79 85.7203 182.874 95.8422 151.744C105.955 120.642 113.644 88.5685 136.307 65.0201C162.16 38.1555 193.97 13.5993 231.139 11.1577Z" stroke="#A7C8FD"/>
<path fill-rule="evenodd" clip-rule="evenodd" d="M231.139 1.22996C269.32 -1.27816 306.445 17.0193 335.458 42.0101C362.979 65.7145 380.638 99.3705 386.699 135.22C392.221 167.874 379.111 199.249 367.275 230.172C356.086 259.403 342.232 286.493 320.272 308.764C294.555 334.845 267.671 370.34 231.139 368.236C194.54 366.128 176.944 322.861 149.152 298.91C124.454 277.626 88.0166 266.761 77.5303 235.86C67.0113 204.862 85.7203 172.946 95.8422 141.816C105.955 110.714 113.644 78.6408 136.307 55.0924C162.16 28.2277 193.97 3.67161 231.139 1.22996Z" stroke="#A7C8FD"/>
<path d="M134.004 134V169.2H140.069V140.065H212.958V204.431C212.958 209.217 212.015 213.957 210.184 218.378C208.352 222.8 205.667 226.818 202.283 230.202C198.899 233.587 194.881 236.271 190.459 238.103C186.037 239.934 181.298 240.877 176.512 240.877C171.726 240.877 166.986 239.934 162.565 238.103C158.143 236.271 154.125 233.587 150.741 230.202C147.356 226.818 144.672 222.8 142.84 218.378C141.009 213.957 140.066 209.217 140.066 204.431V199.388H162.922V204.431C162.922 208.034 164.353 211.489 166.901 214.036C169.448 216.584 172.903 218.015 176.506 218.015C180.109 218.015 183.564 216.584 186.111 214.036C188.659 211.489 190.09 208.034 190.09 204.431V162.926H162.925V169.2H183.825V204.431C183.825 206.371 183.054 208.231 181.683 209.603C180.311 210.974 178.451 211.745 176.511 211.745C174.571 211.745 172.711 210.974 171.339 209.603C169.968 208.231 169.197 206.371 169.197 204.431V193.109H140.065H134V204.428C134 215.703 138.479 226.516 146.451 234.488C154.424 242.461 165.237 246.94 176.511 246.94C187.786 246.94 198.599 242.461 206.572 234.488C214.544 226.516 219.023 215.703 219.023 204.428V134H134.004Z" fill="#E1ECFE"/>
<mask id="path-12-inside-1_24_51" fill="white">
<path fill-rule="evenodd" clip-rule="evenodd" d="M210.163 218.378C211.994 213.957 212.937 209.217 212.937 204.431V140.065H140.067V169.2H134.004V134H219V204.428C219 215.703 214.522 226.516 206.552 234.488C198.582 242.461 187.772 246.94 176.5 246.94C165.228 246.94 154.418 242.461 146.448 234.488C138.478 226.516 134 215.703 134 204.428V193.109H140.063H169.187V204.431C169.187 206.371 169.958 208.231 171.329 209.603C172.7 210.974 174.56 211.745 176.5 211.745C178.439 211.745 180.299 210.974 181.67 209.603C183.041 208.231 183.812 206.371 183.812 204.431V169.2H162.917V162.926H190.075V204.431C190.075 208.034 188.644 211.489 186.097 214.036C183.55 216.584 180.096 218.015 176.494 218.015C172.893 218.015 169.439 216.584 166.892 214.036C164.345 211.489 162.914 208.034 162.914 204.431V199.388H140.064V204.431C140.064 209.217 141.007 213.957 142.838 218.378C144.669 222.8 147.353 226.818 150.736 230.202C154.12 233.587 158.136 236.271 162.557 238.103C166.978 239.934 171.716 240.877 176.5 240.877C181.285 240.877 186.023 239.934 190.444 238.103C194.865 236.271 198.881 233.587 202.265 230.202C205.648 226.818 208.332 222.8 210.163 218.378Z"/>
</mask>
<path fill-rule="evenodd" clip-rule="evenodd" d="M210.163 218.378C211.994 213.957 212.937 209.217 212.937 204.431V140.065H140.067V169.2H134.004V134H219V204.428C219 215.703 214.522 226.516 206.552 234.488C198.582 242.461 187.772 246.94 176.5 246.94C165.228 246.94 154.418 242.461 146.448 234.488C138.478 226.516 134 215.703 134 204.428V193.109H140.063H169.187V204.431C169.187 206.371 169.958 208.231 171.329 209.603C172.7 210.974 174.56 211.745 176.5 211.745C178.439 211.745 180.299 210.974 181.67 209.603C183.041 208.231 183.812 206.371 183.812 204.431V169.2H162.917V162.926H190.075V204.431C190.075 208.034 188.644 211.489 186.097 214.036C183.55 216.584 180.096 218.015 176.494 218.015C172.893 218.015 169.439 216.584 166.892 214.036C164.345 211.489 162.914 208.034 162.914 204.431V199.388H140.064V204.431C140.064 209.217 141.007 213.957 142.838 218.378C144.669 222.8 147.353 226.818 150.736 230.202C154.12 233.587 158.136 236.271 162.557 238.103C166.978 239.934 171.716 240.877 176.5 240.877C181.285 240.877 186.023 239.934 190.444 238.103C194.865 236.271 198.881 233.587 202.265 230.202C205.648 226.818 208.332 222.8 210.163 218.378Z" fill="#E1ECFE"/>
<path d="M210.163 218.378L209.239 217.996L209.239 217.996L210.163 218.378ZM212.937 140.065H213.937V139.065H212.937V140.065ZM140.067 140.065V139.065H139.067V140.065H140.067ZM140.067 169.2V170.2H141.067V169.2H140.067ZM134.004 169.2H133.004V170.2H134.004V169.2ZM134.004 134V133H133.004V134H134.004ZM219 134H220V133H219V134ZM206.552 234.488L205.845 233.781L205.845 233.781L206.552 234.488ZM146.448 234.488L147.155 233.781L147.155 233.781L146.448 234.488ZM134 193.109V192.109H133V193.109H134ZM169.187 193.109H170.187V192.109H169.187V193.109ZM171.329 209.603L170.622 210.31L170.622 210.31L171.329 209.603ZM181.67 209.603L182.377 210.31L182.377 210.31L181.67 209.603ZM183.812 169.2H184.812V168.2H183.812V169.2ZM162.917 169.2H161.917V170.2H162.917V169.2ZM162.917 162.926V161.926H161.917V162.926H162.917ZM190.075 162.926H191.075V161.926H190.075V162.926ZM186.097 214.036L185.39 213.329L185.39 213.329L186.097 214.036ZM166.892 214.036L167.599 213.329L167.599 213.329L166.892 214.036ZM162.914 199.388H163.914V198.388H162.914V199.388ZM140.064 199.388V198.388H139.064V199.388H140.064ZM142.838 218.378L141.914 218.761L141.914 218.761L142.838 218.378ZM162.557 238.103L162.174 239.027L162.174 239.027L162.557 238.103ZM190.444 238.103L190.827 239.027L190.827 239.027L190.444 238.103ZM211.937 204.431C211.937 209.086 211.02 213.695 209.239 217.996L211.087 218.761C212.968 214.218 213.937 209.348 213.937 204.431H211.937ZM211.937 140.065V204.431H213.937V140.065H211.937ZM140.067 141.065H212.937V139.065H140.067V141.065ZM141.067 169.2V140.065H139.067V169.2H141.067ZM134.004 170.2H140.067V168.2H134.004V170.2ZM133.004 134V169.2H135.004V134H133.004ZM219 133H134.004V135H219V133ZM220 204.428V134H218V204.428H220ZM207.259 235.195C215.417 227.035 220 215.968 220 204.428H218C218 215.438 213.628 225.996 205.845 233.781L207.259 235.195ZM176.5 247.94C188.037 247.94 199.101 243.356 207.259 235.195L205.845 233.781C198.062 241.566 187.506 245.94 176.5 245.94V247.94ZM145.741 235.195C153.899 243.356 164.963 247.94 176.5 247.94V245.94C165.494 245.94 154.938 241.566 147.155 233.781L145.741 235.195ZM133 204.428C133 215.968 137.583 227.035 145.741 235.195L147.155 233.781C139.372 225.996 135 215.438 135 204.428H133ZM133 193.109V204.428H135V193.109H133ZM140.063 192.109H134V194.109H140.063V192.109ZM169.187 192.109H140.063V194.109H169.187V192.109ZM170.187 204.431V193.109H168.187V204.431H170.187ZM172.036 208.896C170.853 207.712 170.187 206.106 170.187 204.431H168.187C168.187 206.636 169.063 208.751 170.622 210.31L172.036 208.896ZM176.5 210.745C174.826 210.745 173.22 210.08 172.036 208.896L170.622 210.31C172.181 211.869 174.295 212.745 176.5 212.745V210.745ZM180.963 208.896C179.779 210.08 178.173 210.745 176.5 210.745V212.745C178.704 212.745 180.818 211.869 182.377 210.31L180.963 208.896ZM182.812 204.431C182.812 206.106 182.146 207.712 180.963 208.896L182.377 210.31C183.936 208.751 184.812 206.636 184.812 204.431H182.812ZM182.812 169.2V204.431H184.812V169.2H182.812ZM162.917 170.2H183.812V168.2H162.917V170.2ZM161.917 162.926V169.2H163.917V162.926H161.917ZM190.075 161.926H162.917V163.926H190.075V161.926ZM191.075 204.431V162.926H189.075V204.431H191.075ZM186.804 214.743C189.539 212.008 191.075 208.299 191.075 204.431H189.075C189.075 207.769 187.749 210.969 185.39 213.329L186.804 214.743ZM176.494 219.015C180.362 219.015 184.07 217.478 186.804 214.743L185.39 213.329C183.031 215.689 179.831 217.015 176.494 217.015V219.015ZM166.185 214.743C168.919 217.478 172.627 219.015 176.494 219.015V217.015C173.158 217.015 169.958 215.689 167.599 213.329L166.185 214.743ZM161.914 204.431C161.914 208.299 163.45 212.008 166.185 214.743L167.599 213.329C165.24 210.969 163.914 207.769 163.914 204.431H161.914ZM161.914 199.388V204.431H163.914V199.388H161.914ZM140.064 200.388H162.914V198.388H140.064V200.388ZM141.064 204.431V199.388H139.064V204.431H141.064ZM143.762 217.996C141.981 213.695 141.064 209.086 141.064 204.431H139.064C139.064 209.348 140.033 214.218 141.914 218.761L143.762 217.996ZM151.443 229.495C148.153 226.204 145.543 222.296 143.762 217.996L141.914 218.761C143.795 223.304 146.553 227.432 150.029 230.909L151.443 229.495ZM162.94 237.179C158.64 235.397 154.734 232.787 151.443 229.495L150.029 230.909C153.505 234.386 157.632 237.145 162.174 239.027L162.94 237.179ZM176.5 239.877C171.847 239.877 167.239 238.96 162.94 237.179L162.174 239.027C166.716 240.908 171.584 241.877 176.5 241.877V239.877ZM190.061 237.179C185.762 238.96 181.154 239.877 176.5 239.877V241.877C181.417 241.877 186.285 240.908 190.827 239.027L190.061 237.179ZM201.558 229.495C198.267 232.787 194.361 235.397 190.061 237.179L190.827 239.027C195.369 237.145 199.496 234.386 202.972 230.909L201.558 229.495ZM209.239 217.996C207.458 222.296 204.848 226.204 201.558 229.495L202.972 230.909C206.448 227.432 209.206 223.304 211.087 218.761L209.239 217.996Z" fill="#0F46A5" mask="url(#path-12-inside-1_24_51)"/>
<path d="M210.163 218.378L209.239 217.996L209.239 217.996L210.163 218.378ZM212.937 140.065H213.937V139.065H212.937V140.065ZM140.067 140.065V139.065H139.067V140.065H140.067ZM140.067 169.2V170.2H141.067V169.2H140.067ZM134.004 169.2H133.004V170.2H134.004V169.2ZM134.004 134V133H133.004V134H134.004ZM219 134H220V133H219V134ZM206.552 234.488L205.845 233.781L205.845 233.781L206.552 234.488ZM146.448 234.488L147.155 233.781L147.155 233.781L146.448 234.488ZM134 193.109V192.109H133V193.109H134ZM169.187 193.109H170.187V192.109H169.187V193.109ZM171.329 209.603L170.622 210.31L170.622 210.31L171.329 209.603ZM181.67 209.603L182.377 210.31L182.377 210.31L181.67 209.603ZM183.812 169.2H184.812V168.2H183.812V169.2ZM162.917 169.2H161.917V170.2H162.917V169.2ZM162.917 162.926V161.926H161.917V162.926H162.917ZM190.075 162.926H191.075V161.926H190.075V162.926ZM186.097 214.036L185.39 213.329L185.39 213.329L186.097 214.036ZM166.892 214.036L167.599 213.329L167.599 213.329L166.892 214.036ZM162.914 199.388H163.914V198.388H162.914V199.388ZM140.064 199.388V198.388H139.064V199.388H140.064ZM142.838 218.378L141.914 218.761L141.914 218.761L142.838 218.378ZM162.557 238.103L162.174 239.027L162.174 239.027L162.557 238.103ZM190.444 238.103L190.827 239.027L190.827 239.027L190.444 238.103ZM211.937 204.431C211.937 209.086 211.02 213.695 209.239 217.996L211.087 218.761C212.968 214.218 213.937 209.348 213.937 204.431H211.937ZM211.937 140.065V204.431H213.937V140.065H211.937ZM140.067 141.065H212.937V139.065H140.067V141.065ZM141.067 169.2V140.065H139.067V169.2H141.067ZM134.004 170.2H140.067V168.2H134.004V170.2ZM133.004 134V169.2H135.004V134H133.004ZM219 133H134.004V135H219V133ZM220 204.428V134H218V204.428H220ZM207.259 235.195C215.417 227.035 220 215.968 220 204.428H218C218 215.438 213.628 225.996 205.845 233.781L207.259 235.195ZM176.5 247.94C188.037 247.94 199.101 243.356 207.259 235.195L205.845 233.781C198.062 241.566 187.506 245.94 176.5 245.94V247.94ZM145.741 235.195C153.899 243.356 164.963 247.94 176.5 247.94V245.94C165.494 245.94 154.938 241.566 147.155 233.781L145.741 235.195ZM133 204.428C133 215.968 137.583 227.035 145.741 235.195L147.155 233.781C139.372 225.996 135 215.438 135 204.428H133ZM133 193.109V204.428H135V193.109H133ZM140.063 192.109H134V194.109H140.063V192.109ZM169.187 192.109H140.063V194.109H169.187V192.109ZM170.187 204.431V193.109H168.187V204.431H170.187ZM172.036 208.896C170.853 207.712 170.187 206.106 170.187 204.431H168.187C168.187 206.636 169.063 208.751 170.622 210.31L172.036 208.896ZM176.5 210.745C174.826 210.745 173.22 210.08 172.036 208.896L170.622 210.31C172.181 211.869 174.295 212.745 176.5 212.745V210.745ZM180.963 208.896C179.779 210.08 178.173 210.745 176.5 210.745V212.745C178.704 212.745 180.818 211.869 182.377 210.31L180.963 208.896ZM182.812 204.431C182.812 206.106 182.146 207.712 180.963 208.896L182.377 210.31C183.936 208.751 184.812 206.636 184.812 204.431H182.812ZM182.812 169.2V204.431H184.812V169.2H182.812ZM162.917 170.2H183.812V168.2H162.917V170.2ZM161.917 162.926V169.2H163.917V162.926H161.917ZM190.075 161.926H162.917V163.926H190.075V161.926ZM191.075 204.431V162.926H189.075V204.431H191.075ZM186.804 214.743C189.539 212.008 191.075 208.299 191.075 204.431H189.075C189.075 207.769 187.749 210.969 185.39 213.329L186.804 214.743ZM176.494 219.015C180.362 219.015 184.07 217.478 186.804 214.743L185.39 213.329C183.031 215.689 179.831 217.015 176.494 217.015V219.015ZM166.185 214.743C168.919 217.478 172.627 219.015 176.494 219.015V217.015C173.158 217.015 169.958 215.689 167.599 213.329L166.185 214.743ZM161.914 204.431C161.914 208.299 163.45 212.008 166.185 214.743L167.599 213.329C165.24 210.969 163.914 207.769 163.914 204.431H161.914ZM161.914 199.388V204.431H163.914V199.388H161.914ZM140.064 200.388H162.914V198.388H140.064V200.388ZM141.064 204.431V199.388H139.064V204.431H141.064ZM143.762 217.996C141.981 213.695 141.064 209.086 141.064 204.431H139.064C139.064 209.348 140.033 214.218 141.914 218.761L143.762 217.996ZM151.443 229.495C148.153 226.204 145.543 222.296 143.762 217.996L141.914 218.761C143.795 223.304 146.553 227.432 150.029 230.909L151.443 229.495ZM162.94 237.179C158.64 235.397 154.734 232.787 151.443 229.495L150.029 230.909C153.505 234.386 157.632 237.145 162.174 239.027L162.94 237.179ZM176.5 239.877C171.847 239.877 167.239 238.96 162.94 237.179L162.174 239.027C166.716 240.908 171.584 241.877 176.5 241.877V239.877ZM190.061 237.179C185.762 238.96 181.154 239.877 176.5 239.877V241.877C181.417 241.877 186.285 240.908 190.827 239.027L190.061 237.179ZM201.558 229.495C198.267 232.787 194.361 235.397 190.061 237.179L190.827 239.027C195.369 237.145 199.496 234.386 202.972 230.909L201.558 229.495ZM209.239 217.996C207.458 222.296 204.848 226.204 201.558 229.495L202.972 230.909C206.448 227.432 209.206 223.304 211.087 218.761L209.239 217.996Z" fill="black" fill-opacity="0.2" mask="url(#path-12-inside-1_24_51)"/>
<path d="M206.296 196.789H205.796V197.289V248.84V307.5H202.5V253.129V193.5H251.887C259.741 193.5 267.273 196.615 272.826 202.16C278.38 207.705 281.5 215.225 281.5 223.066C281.5 230.907 278.38 238.427 272.826 243.972C267.273 249.517 259.741 252.632 251.887 252.632H244.369V248.843V228.739H251.889C253.396 228.739 254.84 228.142 255.906 227.078L255.553 226.724L255.906 227.078C256.971 226.014 257.57 224.571 257.57 223.066C257.57 221.562 256.971 220.119 255.906 219.055L255.553 219.409L255.906 219.055C254.84 217.991 253.396 217.394 251.889 217.394H226.934H226.434V217.894V253.54V307.5H222.989V213.963H251.889C254.309 213.963 256.629 214.922 258.34 216.631L258.693 216.277L258.34 216.631C260.05 218.338 261.011 220.655 261.011 223.07C261.011 225.485 260.05 227.802 258.34 229.509L258.693 229.863L258.34 229.509C256.629 231.218 254.309 232.177 251.889 232.177H248.317H247.817V232.677V248.842V249.342H248.317H251.889C255.345 249.342 258.767 248.662 261.96 247.342C265.152 246.022 268.054 244.086 270.497 241.646C272.941 239.206 274.879 236.31 276.202 233.122L276.202 233.121C277.524 229.934 278.205 226.516 278.205 223.066C278.205 219.615 277.524 216.198 276.202 213.01L276.202 213.01C274.879 209.822 272.941 206.925 270.497 204.485C268.054 202.045 265.152 200.11 261.96 198.79C258.767 197.469 255.345 196.789 251.889 196.789H206.296Z" fill="#E1ECFE" stroke="#0A3175"/>
</svg>
