<svg width="361" height="268" viewBox="0 0 361 268" fill="none" xmlns="http://www.w3.org/2000/svg">
<path d="M15.0439 140.017C17.1133 140.017 19.3223 140.093 21.6709 140.245C24.0322 140.385 26.5078 140.664 29.0977 141.083V162.335C29.0977 163.186 28.9072 163.947 28.5264 164.62C28.1582 165.28 27.644 165.858 26.9839 166.353C26.3364 166.835 25.562 167.248 24.6606 167.591C23.772 167.921 22.8071 168.188 21.7661 168.391C20.7378 168.594 19.6523 168.74 18.5098 168.829C17.3672 168.917 16.2246 168.962 15.082 168.962C13.9141 168.962 12.7651 168.917 11.6353 168.829C10.5054 168.74 9.43262 168.594 8.41699 168.391C7.40137 168.188 6.45557 167.921 5.57959 167.591C4.71631 167.248 3.95459 166.835 3.29443 166.353C2.63428 165.858 2.10107 165.28 1.69482 164.62C1.28857 163.96 1.04102 163.198 0.952148 162.335L5.90332 160.964C5.90332 161.751 6.16992 162.392 6.70312 162.887C7.23633 163.382 7.93457 163.77 8.79785 164.049C9.67383 164.328 10.6577 164.519 11.7495 164.62C12.8413 164.722 13.9521 164.772 15.082 164.772C16.2373 164.772 17.3545 164.722 18.4336 164.62C19.5254 164.506 20.4902 164.309 21.3281 164.03C22.1787 163.738 22.8579 163.344 23.3657 162.849C23.8862 162.354 24.1465 161.726 24.1465 160.964V145.006C22.877 144.828 21.5122 144.682 20.0522 144.568C18.605 144.454 17.126 144.396 15.6152 144.396H14.9678C12.8223 144.422 10.6641 144.53 8.49316 144.72C6.33496 144.898 4.12598 145.234 1.86621 145.729V140.931C4.27832 140.562 6.58252 140.321 8.77881 140.207C10.9878 140.08 13.0762 140.017 15.0439 140.017ZM40.333 169H35.4961V147.291H40.333V169ZM37.9336 139.75C38.873 139.75 39.6157 139.909 40.1616 140.226C40.7075 140.531 40.9805 141.02 40.9805 141.692V142.645C40.9805 143.254 40.7075 143.692 40.1616 143.958C39.6157 144.225 38.873 144.358 37.9336 144.358C37.0322 144.358 36.3022 144.225 35.7437 143.958C35.1978 143.692 34.9248 143.254 34.9248 142.645V141.692C34.9248 141.02 35.1978 140.531 35.7437 140.226C36.3022 139.909 37.0322 139.75 37.9336 139.75ZM48.2549 153.271C48.2041 152.864 48.0835 152.521 47.8931 152.242C47.7153 151.963 47.5186 151.734 47.3027 151.557C47.0615 151.341 46.7949 151.163 46.5029 151.023L48.6357 147.291C49.1055 147.456 49.5752 147.678 50.0449 147.958C50.4385 148.199 50.8511 148.51 51.2827 148.891C51.7271 149.259 52.1143 149.716 52.4443 150.262C53.0791 149.855 53.7266 149.475 54.3867 149.119C55.0596 148.751 55.7578 148.434 56.4814 148.167C57.2178 147.9 57.9858 147.691 58.7856 147.539C59.5981 147.374 60.4678 147.291 61.3945 147.291C63.3496 147.291 65.0254 147.456 66.4219 147.786C67.8311 148.104 68.98 148.586 69.8687 149.233C70.77 149.868 71.4302 150.662 71.8491 151.614C72.2681 152.566 72.4775 153.677 72.4775 154.946V169H67.4883V156.127C67.4883 155.416 67.3931 154.807 67.2026 154.299C67.0122 153.778 66.752 153.34 66.4219 152.985C66.1045 152.617 65.73 152.318 65.2983 152.09C64.8667 151.861 64.416 151.69 63.9463 151.576C63.4893 151.449 63.0195 151.366 62.5371 151.328C62.0547 151.277 61.5977 151.252 61.166 151.252C60.3535 151.252 59.5791 151.309 58.8428 151.423C58.1064 151.538 57.4082 151.696 56.748 151.899C56.0879 152.09 55.4658 152.318 54.8818 152.585C54.2979 152.852 53.752 153.131 53.2441 153.423V169H48.2549V153.271ZM90.3018 147.291C91.3809 147.291 92.479 147.335 93.5962 147.424C94.7134 147.5 95.7861 147.608 96.8145 147.748C97.8555 147.875 98.8267 148.027 99.728 148.205C100.642 148.383 101.436 148.573 102.108 148.776H102.413V169.952C102.413 170.854 102.223 171.691 101.842 172.466C101.461 173.24 100.909 173.907 100.185 174.465C99.4614 175.037 98.5728 175.481 97.519 175.798C96.4653 176.116 95.2656 176.274 93.9199 176.274V172.961C94.4277 172.961 94.8975 172.91 95.3291 172.809C95.7607 172.707 96.1353 172.548 96.4526 172.333C96.7827 172.129 97.0366 171.869 97.2144 171.552C97.4048 171.247 97.5 170.892 97.5 170.485V167.553C96.3447 167.997 95.145 168.353 93.9009 168.619C92.6694 168.873 91.4697 169 90.3018 169C88.3467 169 86.6011 168.867 85.0649 168.6C83.5288 168.321 82.2275 167.896 81.1611 167.324C80.0947 166.753 79.2822 166.029 78.7236 165.153C78.165 164.277 77.8857 163.236 77.8857 162.03V154.261C77.8857 153.055 78.165 152.014 78.7236 151.138C79.2822 150.262 80.0947 149.538 81.1611 148.967C82.2275 148.396 83.5288 147.977 85.0649 147.71C86.6011 147.431 88.3467 147.291 90.3018 147.291ZM91.6729 165.191C92.3711 165.191 93.0122 165.147 93.5962 165.058C94.1802 164.957 94.707 164.83 95.1768 164.677C95.6592 164.525 96.0908 164.366 96.4717 164.201C96.8652 164.023 97.208 163.858 97.5 163.706V151.861C97.1572 151.734 96.7573 151.607 96.3003 151.48C95.856 151.354 95.3735 151.246 94.853 151.157C94.3452 151.055 93.8184 150.979 93.2725 150.928C92.7266 150.865 92.1934 150.833 91.6729 150.833C90.4922 150.833 89.3687 150.865 88.3022 150.928C87.2358 150.992 86.3027 151.163 85.5029 151.442C84.7031 151.722 84.062 152.153 83.5796 152.737C83.1099 153.309 82.875 154.108 82.875 155.137V160.735C82.875 161.408 82.9829 161.986 83.1987 162.468C83.4146 162.951 83.7129 163.357 84.0938 163.687C84.4873 164.017 84.957 164.284 85.5029 164.487C86.0488 164.677 86.6455 164.83 87.293 164.944C87.9404 165.045 88.6323 165.115 89.3687 165.153C90.1177 165.179 90.8857 165.191 91.6729 165.191ZM113.268 169H108.926V140.397H113.268V169ZM133.377 147.291C134.024 147.291 134.805 147.323 135.719 147.386C136.633 147.45 137.579 147.564 138.557 147.729C139.547 147.881 140.524 148.104 141.489 148.396C142.454 148.675 143.317 149.037 144.079 149.481C144.854 149.925 145.476 150.465 145.945 151.1C146.428 151.722 146.669 152.458 146.669 153.309V159.745H124.846V164.62C126.382 164.836 127.861 164.988 129.283 165.077C130.705 165.153 132.069 165.191 133.377 165.191C135.37 165.191 137.173 165.115 138.785 164.963C140.41 164.811 141.813 164.639 142.994 164.449C144.352 164.233 145.577 163.985 146.669 163.706V167.934C144.257 168.314 141.927 168.587 139.68 168.752C137.446 168.917 135.345 169 133.377 169C131.396 169 129.6 168.949 127.988 168.848C126.375 168.733 124.992 168.606 123.836 168.467C122.491 168.314 121.278 168.137 120.199 167.934V153.309C120.199 152.458 120.409 151.722 120.828 151.1C121.247 150.465 121.805 149.925 122.503 149.481C123.202 149.037 124.001 148.675 124.903 148.396C125.817 148.104 126.763 147.881 127.74 147.729C128.718 147.564 129.689 147.45 130.654 147.386C131.631 147.323 132.539 147.291 133.377 147.291ZM124.846 156.698H141.946V154.489C141.946 153.969 141.819 153.524 141.565 153.156C141.312 152.775 140.969 152.458 140.537 152.204C140.118 151.95 139.623 151.747 139.052 151.595C138.493 151.43 137.909 151.309 137.3 151.233C136.69 151.144 136.075 151.087 135.453 151.062C134.843 151.036 134.266 151.023 133.72 151.023C133.148 151.023 132.533 151.036 131.873 151.062C131.225 151.087 130.571 151.144 129.911 151.233C129.251 151.322 128.616 151.449 128.007 151.614C127.397 151.766 126.858 151.976 126.388 152.242C125.918 152.496 125.544 152.813 125.265 153.194C124.985 153.562 124.846 154.007 124.846 154.527V156.698ZM179.613 139.902C180.883 139.902 182.178 139.966 183.498 140.093C184.831 140.207 186.126 140.417 187.383 140.721C188.64 141.013 189.82 141.426 190.925 141.959C192.029 142.479 192.994 143.146 193.819 143.958C194.657 144.758 195.317 145.723 195.8 146.853C196.282 147.97 196.523 149.284 196.523 150.795C196.523 152.331 196.314 153.683 195.895 154.851C195.489 156.019 194.911 157.035 194.162 157.898C193.426 158.761 192.543 159.485 191.515 160.069C190.5 160.64 189.382 161.104 188.164 161.459C186.945 161.802 185.65 162.049 184.279 162.202C182.908 162.341 181.505 162.411 180.07 162.411C179.169 162.411 178.274 162.386 177.385 162.335C176.497 162.284 175.602 162.221 174.7 162.145V168.962H169.978V141.007C170.257 140.918 170.701 140.81 171.311 140.683C171.933 140.556 172.663 140.436 173.5 140.321C174.351 140.207 175.297 140.112 176.338 140.036C177.379 139.947 178.471 139.902 179.613 139.902ZM180.984 144.092C180.146 144.092 179.347 144.13 178.585 144.206C177.823 144.27 177.157 144.346 176.585 144.435C175.9 144.536 175.271 144.65 174.7 144.777V157.803C175.106 157.892 175.557 157.968 176.052 158.031C176.471 158.095 176.96 158.152 177.519 158.203C178.077 158.241 178.674 158.26 179.309 158.26C180.134 158.26 181.003 158.241 181.917 158.203C182.844 158.152 183.758 158.044 184.66 157.879C185.574 157.714 186.437 157.473 187.25 157.155C188.075 156.825 188.798 156.394 189.42 155.86C190.055 155.314 190.557 154.642 190.925 153.842C191.306 153.042 191.496 152.077 191.496 150.947C191.496 150.008 191.344 149.183 191.039 148.472C190.734 147.761 190.322 147.151 189.801 146.644C189.281 146.136 188.671 145.717 187.973 145.387C187.288 145.057 186.551 144.796 185.764 144.606C184.99 144.416 184.19 144.282 183.365 144.206C182.552 144.13 181.759 144.092 180.984 144.092ZM212.9 147.291C213.548 147.291 214.329 147.323 215.243 147.386C216.157 147.45 217.103 147.564 218.08 147.729C219.07 147.881 220.048 148.104 221.013 148.396C221.978 148.675 222.841 149.037 223.603 149.481C224.377 149.925 224.999 150.465 225.469 151.1C225.951 151.722 226.192 152.458 226.192 153.309V159.745H204.369V164.62C205.905 164.836 207.384 164.988 208.806 165.077C210.228 165.153 211.593 165.191 212.9 165.191C214.894 165.191 216.696 165.115 218.309 164.963C219.934 164.811 221.336 164.639 222.517 164.449C223.875 164.233 225.101 163.985 226.192 163.706V167.934C223.78 168.314 221.451 168.587 219.204 168.752C216.969 168.917 214.868 169 212.9 169C210.92 169 209.124 168.949 207.511 168.848C205.899 168.733 204.515 168.606 203.36 168.467C202.014 168.314 200.802 168.137 199.723 167.934V153.309C199.723 152.458 199.932 151.722 200.351 151.1C200.77 150.465 201.329 149.925 202.027 149.481C202.725 149.037 203.525 148.675 204.426 148.396C205.34 148.104 206.286 147.881 207.264 147.729C208.241 147.564 209.212 147.45 210.177 147.386C211.155 147.323 212.062 147.291 212.9 147.291ZM204.369 156.698H221.47V154.489C221.47 153.969 221.343 153.524 221.089 153.156C220.835 152.775 220.492 152.458 220.061 152.204C219.642 151.95 219.146 151.747 218.575 151.595C218.017 151.43 217.433 151.309 216.823 151.233C216.214 151.144 215.598 151.087 214.976 151.062C214.367 151.036 213.789 151.023 213.243 151.023C212.672 151.023 212.056 151.036 211.396 151.062C210.749 151.087 210.095 151.144 209.435 151.233C208.774 151.322 208.14 151.449 207.53 151.614C206.921 151.766 206.381 151.976 205.912 152.242C205.442 152.496 205.067 152.813 204.788 153.194C204.509 153.562 204.369 154.007 204.369 154.527V156.698ZM244.55 146.948C245.604 146.948 246.664 146.999 247.73 147.101C248.796 147.202 249.818 147.367 250.796 147.596C251.773 147.824 252.688 148.11 253.538 148.453C254.389 148.795 255.125 149.208 255.747 149.69C256.382 150.173 256.877 150.731 257.232 151.366C257.588 151.988 257.766 152.687 257.766 153.461L252.891 154.185C252.891 153.639 252.656 153.15 252.186 152.718C251.716 152.274 251.094 151.906 250.32 151.614C249.545 151.309 248.657 151.081 247.654 150.928C246.651 150.763 245.616 150.681 244.55 150.681C243.534 150.681 242.531 150.757 241.541 150.909C240.551 151.049 239.662 151.265 238.875 151.557C238.101 151.849 237.466 152.217 236.971 152.661C236.488 153.093 236.247 153.601 236.247 154.185V162.106C236.247 162.69 236.488 163.198 236.971 163.63C237.466 164.049 238.101 164.404 238.875 164.696C239.662 164.976 240.551 165.185 241.541 165.325C242.531 165.464 243.534 165.534 244.55 165.534C245.616 165.534 246.651 165.458 247.654 165.306C248.657 165.153 249.545 164.938 250.32 164.658C251.094 164.366 251.716 164.011 252.186 163.592C252.656 163.16 252.891 162.665 252.891 162.106L257.766 163.325C257.766 164.011 257.588 164.639 257.232 165.21C256.877 165.782 256.382 166.296 255.747 166.753C255.125 167.197 254.389 167.584 253.538 167.915C252.688 168.245 251.773 168.518 250.796 168.733C249.818 168.949 248.796 169.108 247.73 169.209C246.664 169.324 245.604 169.381 244.55 169.381C243.496 169.381 242.436 169.324 241.37 169.209C240.316 169.108 239.3 168.949 238.323 168.733C237.345 168.518 236.431 168.245 235.581 167.915C234.743 167.584 234.006 167.197 233.372 166.753C232.75 166.296 232.261 165.788 231.905 165.229C231.55 164.658 231.372 164.023 231.372 163.325V153.461C231.372 152.687 231.55 151.988 231.905 151.366C232.261 150.731 232.75 150.173 233.372 149.69C234.006 149.208 234.743 148.795 235.581 148.453C236.431 148.11 237.345 147.824 238.323 147.596C239.3 147.367 240.316 147.202 241.37 147.101C242.436 146.999 243.496 146.948 244.55 146.948ZM268.582 147.024H273.419V150.224H268.582V169H264.05V150.224H260.47V147.024H264.05V140.397H268.582V147.024ZM282.293 162.106C282.293 162.69 282.502 163.179 282.921 163.573C283.353 163.966 283.924 164.29 284.635 164.544C285.359 164.785 286.19 164.963 287.13 165.077C288.069 165.179 289.047 165.229 290.062 165.229C291.129 165.229 292.132 165.172 293.071 165.058C294.011 164.931 294.83 164.747 295.528 164.506C296.226 164.252 296.778 163.928 297.185 163.535C297.591 163.141 297.794 162.665 297.794 162.106V147.291L302.859 147.672V163.325C302.859 164.011 302.688 164.639 302.345 165.21C302.015 165.782 301.552 166.296 300.955 166.753C300.358 167.197 299.654 167.584 298.841 167.915C298.029 168.245 297.146 168.518 296.194 168.733C295.255 168.949 294.258 169.108 293.205 169.209C292.164 169.324 291.116 169.381 290.062 169.381C288.996 169.381 287.942 169.324 286.901 169.209C285.86 169.108 284.864 168.949 283.912 168.733C282.972 168.518 282.096 168.245 281.284 167.915C280.471 167.584 279.767 167.197 279.17 166.753C278.573 166.296 278.104 165.788 277.761 165.229C277.431 164.658 277.266 164.023 277.266 163.325V147.672L282.293 147.291V162.106ZM320.836 147.291C322.347 147.291 323.819 147.386 325.254 147.577C326.688 147.754 327.977 148.065 329.12 148.51C330.262 148.941 331.202 149.532 331.938 150.281C332.674 151.03 333.112 151.963 333.252 153.08L328.834 154.299C328.834 153.639 328.605 153.093 328.148 152.661C327.704 152.217 327.107 151.874 326.358 151.633C325.622 151.379 324.771 151.201 323.807 151.1C322.842 150.998 321.852 150.947 320.836 150.947C319.858 150.947 318.887 150.998 317.922 151.1C316.97 151.188 316.113 151.36 315.352 151.614C314.603 151.855 313.993 152.191 313.523 152.623C313.066 153.055 312.838 153.613 312.838 154.299V156.622H333.252V163.211C333.252 163.96 333.087 164.626 332.757 165.21C332.427 165.782 331.97 166.283 331.386 166.715C330.802 167.134 330.11 167.496 329.31 167.8C328.523 168.092 327.666 168.327 326.739 168.505C325.825 168.683 324.86 168.81 323.845 168.886C322.842 168.962 321.839 169 320.836 169C319.3 169 317.814 168.911 316.38 168.733C314.945 168.543 313.657 168.232 312.514 167.8C311.372 167.356 310.432 166.766 309.696 166.029C308.972 165.28 308.547 164.341 308.42 163.211L312.838 161.992C312.838 162.69 313.066 163.255 313.523 163.687C313.993 164.119 314.603 164.455 315.352 164.696C316.113 164.938 316.97 165.103 317.922 165.191C318.887 165.268 319.858 165.306 320.836 165.306C321.852 165.306 322.842 165.261 323.807 165.172C324.771 165.071 325.622 164.899 326.358 164.658C327.107 164.404 327.704 164.068 328.148 163.649C328.605 163.217 328.834 162.665 328.834 161.992V159.669H308.42V153.08C308.42 152.331 308.585 151.671 308.915 151.1C309.245 150.516 309.696 150.014 310.267 149.595C310.851 149.164 311.537 148.802 312.324 148.51C313.111 148.205 313.961 147.964 314.875 147.786C315.802 147.608 316.767 147.481 317.77 147.405C318.786 147.329 319.808 147.291 320.836 147.291Z" fill="#037EE5"/>
<path d="M19.0439 140.017C21.1133 140.017 23.3223 140.093 25.6709 140.245C28.0322 140.385 30.5078 140.664 33.0977 141.083V162.335C33.0977 163.186 32.9072 163.947 32.5264 164.62C32.1582 165.28 31.644 165.858 30.9839 166.353C30.3364 166.835 29.562 167.248 28.6606 167.591C27.772 167.921 26.8071 168.188 25.7661 168.391C24.7378 168.594 23.6523 168.74 22.5098 168.829C21.3672 168.917 20.2246 168.962 19.082 168.962C17.9141 168.962 16.7651 168.917 15.6353 168.829C14.5054 168.74 13.4326 168.594 12.417 168.391C11.4014 168.188 10.4556 167.921 9.57959 167.591C8.71631 167.248 7.95459 166.835 7.29443 166.353C6.63428 165.858 6.10107 165.28 5.69482 164.62C5.28857 163.96 5.04102 163.198 4.95215 162.335L9.90332 160.964C9.90332 161.751 10.1699 162.392 10.7031 162.887C11.2363 163.382 11.9346 163.77 12.7979 164.049C13.6738 164.328 14.6577 164.519 15.7495 164.62C16.8413 164.722 17.9521 164.772 19.082 164.772C20.2373 164.772 21.3545 164.722 22.4336 164.62C23.5254 164.506 24.4902 164.309 25.3281 164.03C26.1787 163.738 26.8579 163.344 27.3657 162.849C27.8862 162.354 28.1465 161.726 28.1465 160.964V145.006C26.877 144.828 25.5122 144.682 24.0522 144.568C22.605 144.454 21.126 144.396 19.6152 144.396H18.9678C16.8223 144.422 14.6641 144.53 12.4932 144.72C10.335 144.898 8.12598 145.234 5.86621 145.729V140.931C8.27832 140.562 10.5825 140.321 12.7788 140.207C14.9878 140.08 17.0762 140.017 19.0439 140.017ZM44.333 169H39.4961V147.291H44.333V169ZM41.9336 139.75C42.873 139.75 43.6157 139.909 44.1616 140.226C44.7075 140.531 44.9805 141.02 44.9805 141.692V142.645C44.9805 143.254 44.7075 143.692 44.1616 143.958C43.6157 144.225 42.873 144.358 41.9336 144.358C41.0322 144.358 40.3022 144.225 39.7437 143.958C39.1978 143.692 38.9248 143.254 38.9248 142.645V141.692C38.9248 141.02 39.1978 140.531 39.7437 140.226C40.3022 139.909 41.0322 139.75 41.9336 139.75ZM52.2549 153.271C52.2041 152.864 52.0835 152.521 51.8931 152.242C51.7153 151.963 51.5186 151.734 51.3027 151.557C51.0615 151.341 50.7949 151.163 50.5029 151.023L52.6357 147.291C53.1055 147.456 53.5752 147.678 54.0449 147.958C54.4385 148.199 54.8511 148.51 55.2827 148.891C55.7271 149.259 56.1143 149.716 56.4443 150.262C57.0791 149.855 57.7266 149.475 58.3867 149.119C59.0596 148.751 59.7578 148.434 60.4814 148.167C61.2178 147.9 61.9858 147.691 62.7856 147.539C63.5981 147.374 64.4678 147.291 65.3945 147.291C67.3496 147.291 69.0254 147.456 70.4219 147.786C71.8311 148.104 72.98 148.586 73.8687 149.233C74.77 149.868 75.4302 150.662 75.8491 151.614C76.2681 152.566 76.4775 153.677 76.4775 154.946V169H71.4883V156.127C71.4883 155.416 71.3931 154.807 71.2026 154.299C71.0122 153.778 70.752 153.34 70.4219 152.985C70.1045 152.617 69.73 152.318 69.2983 152.09C68.8667 151.861 68.416 151.69 67.9463 151.576C67.4893 151.449 67.0195 151.366 66.5371 151.328C66.0547 151.277 65.5977 151.252 65.166 151.252C64.3535 151.252 63.5791 151.309 62.8428 151.423C62.1064 151.538 61.4082 151.696 60.748 151.899C60.0879 152.09 59.4658 152.318 58.8818 152.585C58.2979 152.852 57.752 153.131 57.2441 153.423V169H52.2549V153.271ZM94.3018 147.291C95.3809 147.291 96.479 147.335 97.5962 147.424C98.7134 147.5 99.7861 147.608 100.814 147.748C101.855 147.875 102.827 148.027 103.728 148.205C104.642 148.383 105.436 148.573 106.108 148.776H106.413V169.952C106.413 170.854 106.223 171.691 105.842 172.466C105.461 173.24 104.909 173.907 104.185 174.465C103.461 175.037 102.573 175.481 101.519 175.798C100.465 176.116 99.2656 176.274 97.9199 176.274V172.961C98.4277 172.961 98.8975 172.91 99.3291 172.809C99.7607 172.707 100.135 172.548 100.453 172.333C100.783 172.129 101.037 171.869 101.214 171.552C101.405 171.247 101.5 170.892 101.5 170.485V167.553C100.345 167.997 99.145 168.353 97.9009 168.619C96.6694 168.873 95.4697 169 94.3018 169C92.3467 169 90.6011 168.867 89.0649 168.6C87.5288 168.321 86.2275 167.896 85.1611 167.324C84.0947 166.753 83.2822 166.029 82.7236 165.153C82.165 164.277 81.8857 163.236 81.8857 162.03V154.261C81.8857 153.055 82.165 152.014 82.7236 151.138C83.2822 150.262 84.0947 149.538 85.1611 148.967C86.2275 148.396 87.5288 147.977 89.0649 147.71C90.6011 147.431 92.3467 147.291 94.3018 147.291ZM95.6729 165.191C96.3711 165.191 97.0122 165.147 97.5962 165.058C98.1802 164.957 98.707 164.83 99.1768 164.677C99.6592 164.525 100.091 164.366 100.472 164.201C100.865 164.023 101.208 163.858 101.5 163.706V151.861C101.157 151.734 100.757 151.607 100.3 151.48C99.856 151.354 99.3735 151.246 98.853 151.157C98.3452 151.055 97.8184 150.979 97.2725 150.928C96.7266 150.865 96.1934 150.833 95.6729 150.833C94.4922 150.833 93.3687 150.865 92.3022 150.928C91.2358 150.992 90.3027 151.163 89.5029 151.442C88.7031 151.722 88.062 152.153 87.5796 152.737C87.1099 153.309 86.875 154.108 86.875 155.137V160.735C86.875 161.408 86.9829 161.986 87.1987 162.468C87.4146 162.951 87.7129 163.357 88.0938 163.687C88.4873 164.017 88.957 164.284 89.5029 164.487C90.0488 164.677 90.6455 164.83 91.293 164.944C91.9404 165.045 92.6323 165.115 93.3687 165.153C94.1177 165.179 94.8857 165.191 95.6729 165.191ZM117.268 169H112.926V140.397H117.268V169ZM137.377 147.291C138.024 147.291 138.805 147.323 139.719 147.386C140.633 147.45 141.579 147.564 142.557 147.729C143.547 147.881 144.524 148.104 145.489 148.396C146.454 148.675 147.317 149.037 148.079 149.481C148.854 149.925 149.476 150.465 149.945 151.1C150.428 151.722 150.669 152.458 150.669 153.309V159.745H128.846V164.62C130.382 164.836 131.861 164.988 133.283 165.077C134.705 165.153 136.069 165.191 137.377 165.191C139.37 165.191 141.173 165.115 142.785 164.963C144.41 164.811 145.813 164.639 146.994 164.449C148.352 164.233 149.577 163.985 150.669 163.706V167.934C148.257 168.314 145.927 168.587 143.68 168.752C141.446 168.917 139.345 169 137.377 169C135.396 169 133.6 168.949 131.988 168.848C130.375 168.733 128.992 168.606 127.836 168.467C126.491 168.314 125.278 168.137 124.199 167.934V153.309C124.199 152.458 124.409 151.722 124.828 151.1C125.247 150.465 125.805 149.925 126.503 149.481C127.202 149.037 128.001 148.675 128.903 148.396C129.817 148.104 130.763 147.881 131.74 147.729C132.718 147.564 133.689 147.45 134.654 147.386C135.631 147.323 136.539 147.291 137.377 147.291ZM128.846 156.698H145.946V154.489C145.946 153.969 145.819 153.524 145.565 153.156C145.312 152.775 144.969 152.458 144.537 152.204C144.118 151.95 143.623 151.747 143.052 151.595C142.493 151.43 141.909 151.309 141.3 151.233C140.69 151.144 140.075 151.087 139.453 151.062C138.843 151.036 138.266 151.023 137.72 151.023C137.148 151.023 136.533 151.036 135.873 151.062C135.225 151.087 134.571 151.144 133.911 151.233C133.251 151.322 132.616 151.449 132.007 151.614C131.397 151.766 130.858 151.976 130.388 152.242C129.918 152.496 129.544 152.813 129.265 153.194C128.985 153.562 128.846 154.007 128.846 154.527V156.698ZM183.613 139.902C184.883 139.902 186.178 139.966 187.498 140.093C188.831 140.207 190.126 140.417 191.383 140.721C192.64 141.013 193.82 141.426 194.925 141.959C196.029 142.479 196.994 143.146 197.819 143.958C198.657 144.758 199.317 145.723 199.8 146.853C200.282 147.97 200.523 149.284 200.523 150.795C200.523 152.331 200.314 153.683 199.895 154.851C199.489 156.019 198.911 157.035 198.162 157.898C197.426 158.761 196.543 159.485 195.515 160.069C194.5 160.64 193.382 161.104 192.164 161.459C190.945 161.802 189.65 162.049 188.279 162.202C186.908 162.341 185.505 162.411 184.07 162.411C183.169 162.411 182.274 162.386 181.385 162.335C180.497 162.284 179.602 162.221 178.7 162.145V168.962H173.978V141.007C174.257 140.918 174.701 140.81 175.311 140.683C175.933 140.556 176.663 140.436 177.5 140.321C178.351 140.207 179.297 140.112 180.338 140.036C181.379 139.947 182.471 139.902 183.613 139.902ZM184.984 144.092C184.146 144.092 183.347 144.13 182.585 144.206C181.823 144.27 181.157 144.346 180.585 144.435C179.9 144.536 179.271 144.65 178.7 144.777V157.803C179.106 157.892 179.557 157.968 180.052 158.031C180.471 158.095 180.96 158.152 181.519 158.203C182.077 158.241 182.674 158.26 183.309 158.26C184.134 158.26 185.003 158.241 185.917 158.203C186.844 158.152 187.758 158.044 188.66 157.879C189.574 157.714 190.437 157.473 191.25 157.155C192.075 156.825 192.798 156.394 193.42 155.86C194.055 155.314 194.557 154.642 194.925 153.842C195.306 153.042 195.496 152.077 195.496 150.947C195.496 150.008 195.344 149.183 195.039 148.472C194.734 147.761 194.322 147.151 193.801 146.644C193.281 146.136 192.671 145.717 191.973 145.387C191.288 145.057 190.551 144.796 189.764 144.606C188.99 144.416 188.19 144.282 187.365 144.206C186.552 144.13 185.759 144.092 184.984 144.092ZM216.9 147.291C217.548 147.291 218.329 147.323 219.243 147.386C220.157 147.45 221.103 147.564 222.08 147.729C223.07 147.881 224.048 148.104 225.013 148.396C225.978 148.675 226.841 149.037 227.603 149.481C228.377 149.925 228.999 150.465 229.469 151.1C229.951 151.722 230.192 152.458 230.192 153.309V159.745H208.369V164.62C209.905 164.836 211.384 164.988 212.806 165.077C214.228 165.153 215.593 165.191 216.9 165.191C218.894 165.191 220.696 165.115 222.309 164.963C223.934 164.811 225.336 164.639 226.517 164.449C227.875 164.233 229.101 163.985 230.192 163.706V167.934C227.78 168.314 225.451 168.587 223.204 168.752C220.969 168.917 218.868 169 216.9 169C214.92 169 213.124 168.949 211.511 168.848C209.899 168.733 208.515 168.606 207.36 168.467C206.014 168.314 204.802 168.137 203.723 167.934V153.309C203.723 152.458 203.932 151.722 204.351 151.1C204.77 150.465 205.329 149.925 206.027 149.481C206.725 149.037 207.525 148.675 208.426 148.396C209.34 148.104 210.286 147.881 211.264 147.729C212.241 147.564 213.212 147.45 214.177 147.386C215.155 147.323 216.062 147.291 216.9 147.291ZM208.369 156.698H225.47V154.489C225.47 153.969 225.343 153.524 225.089 153.156C224.835 152.775 224.492 152.458 224.061 152.204C223.642 151.95 223.146 151.747 222.575 151.595C222.017 151.43 221.433 151.309 220.823 151.233C220.214 151.144 219.598 151.087 218.976 151.062C218.367 151.036 217.789 151.023 217.243 151.023C216.672 151.023 216.056 151.036 215.396 151.062C214.749 151.087 214.095 151.144 213.435 151.233C212.774 151.322 212.14 151.449 211.53 151.614C210.921 151.766 210.381 151.976 209.912 152.242C209.442 152.496 209.067 152.813 208.788 153.194C208.509 153.562 208.369 154.007 208.369 154.527V156.698ZM248.55 146.948C249.604 146.948 250.664 146.999 251.73 147.101C252.796 147.202 253.818 147.367 254.796 147.596C255.773 147.824 256.688 148.11 257.538 148.453C258.389 148.795 259.125 149.208 259.747 149.69C260.382 150.173 260.877 150.731 261.232 151.366C261.588 151.988 261.766 152.687 261.766 153.461L256.891 154.185C256.891 153.639 256.656 153.15 256.186 152.718C255.716 152.274 255.094 151.906 254.32 151.614C253.545 151.309 252.657 151.081 251.654 150.928C250.651 150.763 249.616 150.681 248.55 150.681C247.534 150.681 246.531 150.757 245.541 150.909C244.551 151.049 243.662 151.265 242.875 151.557C242.101 151.849 241.466 152.217 240.971 152.661C240.488 153.093 240.247 153.601 240.247 154.185V162.106C240.247 162.69 240.488 163.198 240.971 163.63C241.466 164.049 242.101 164.404 242.875 164.696C243.662 164.976 244.551 165.185 245.541 165.325C246.531 165.464 247.534 165.534 248.55 165.534C249.616 165.534 250.651 165.458 251.654 165.306C252.657 165.153 253.545 164.938 254.32 164.658C255.094 164.366 255.716 164.011 256.186 163.592C256.656 163.16 256.891 162.665 256.891 162.106L261.766 163.325C261.766 164.011 261.588 164.639 261.232 165.21C260.877 165.782 260.382 166.296 259.747 166.753C259.125 167.197 258.389 167.584 257.538 167.915C256.688 168.245 255.773 168.518 254.796 168.733C253.818 168.949 252.796 169.108 251.73 169.209C250.664 169.324 249.604 169.381 248.55 169.381C247.496 169.381 246.436 169.324 245.37 169.209C244.316 169.108 243.3 168.949 242.323 168.733C241.345 168.518 240.431 168.245 239.581 167.915C238.743 167.584 238.006 167.197 237.372 166.753C236.75 166.296 236.261 165.788 235.905 165.229C235.55 164.658 235.372 164.023 235.372 163.325V153.461C235.372 152.687 235.55 151.988 235.905 151.366C236.261 150.731 236.75 150.173 237.372 149.69C238.006 149.208 238.743 148.795 239.581 148.453C240.431 148.11 241.345 147.824 242.323 147.596C243.3 147.367 244.316 147.202 245.37 147.101C246.436 146.999 247.496 146.948 248.55 146.948ZM272.582 147.024H277.419V150.224H272.582V169H268.05V150.224H264.47V147.024H268.05V140.397H272.582V147.024ZM286.293 162.106C286.293 162.69 286.502 163.179 286.921 163.573C287.353 163.966 287.924 164.29 288.635 164.544C289.359 164.785 290.19 164.963 291.13 165.077C292.069 165.179 293.047 165.229 294.062 165.229C295.129 165.229 296.132 165.172 297.071 165.058C298.011 164.931 298.83 164.747 299.528 164.506C300.226 164.252 300.778 163.928 301.185 163.535C301.591 163.141 301.794 162.665 301.794 162.106V147.291L306.859 147.672V163.325C306.859 164.011 306.688 164.639 306.345 165.21C306.015 165.782 305.552 166.296 304.955 166.753C304.358 167.197 303.654 167.584 302.841 167.915C302.029 168.245 301.146 168.518 300.194 168.733C299.255 168.949 298.258 169.108 297.205 169.209C296.164 169.324 295.116 169.381 294.062 169.381C292.996 169.381 291.942 169.324 290.901 169.209C289.86 169.108 288.864 168.949 287.912 168.733C286.972 168.518 286.096 168.245 285.284 167.915C284.471 167.584 283.767 167.197 283.17 166.753C282.573 166.296 282.104 165.788 281.761 165.229C281.431 164.658 281.266 164.023 281.266 163.325V147.672L286.293 147.291V162.106ZM324.836 147.291C326.347 147.291 327.819 147.386 329.254 147.577C330.688 147.754 331.977 148.065 333.12 148.51C334.262 148.941 335.202 149.532 335.938 150.281C336.674 151.03 337.112 151.963 337.252 153.08L332.834 154.299C332.834 153.639 332.605 153.093 332.148 152.661C331.704 152.217 331.107 151.874 330.358 151.633C329.622 151.379 328.771 151.201 327.807 151.1C326.842 150.998 325.852 150.947 324.836 150.947C323.858 150.947 322.887 150.998 321.922 151.1C320.97 151.188 320.113 151.36 319.352 151.614C318.603 151.855 317.993 152.191 317.523 152.623C317.066 153.055 316.838 153.613 316.838 154.299V156.622H337.252V163.211C337.252 163.96 337.087 164.626 336.757 165.21C336.427 165.782 335.97 166.283 335.386 166.715C334.802 167.134 334.11 167.496 333.31 167.8C332.523 168.092 331.666 168.327 330.739 168.505C329.825 168.683 328.86 168.81 327.845 168.886C326.842 168.962 325.839 169 324.836 169C323.3 169 321.814 168.911 320.38 168.733C318.945 168.543 317.657 168.232 316.514 167.8C315.372 167.356 314.432 166.766 313.696 166.029C312.972 165.28 312.547 164.341 312.42 163.211L316.838 161.992C316.838 162.69 317.066 163.255 317.523 163.687C317.993 164.119 318.603 164.455 319.352 164.696C320.113 164.938 320.97 165.103 321.922 165.191C322.887 165.268 323.858 165.306 324.836 165.306C325.852 165.306 326.842 165.261 327.807 165.172C328.771 165.071 329.622 164.899 330.358 164.658C331.107 164.404 331.704 164.068 332.148 163.649C332.605 163.217 332.834 162.665 332.834 161.992V159.669H312.42V153.08C312.42 152.331 312.585 151.671 312.915 151.1C313.245 150.516 313.696 150.014 314.267 149.595C314.851 149.164 315.537 148.802 316.324 148.51C317.111 148.205 317.961 147.964 318.875 147.786C319.802 147.608 320.767 147.481 321.77 147.405C322.786 147.329 323.808 147.291 324.836 147.291Z" fill="#2B78CD" fill-opacity="0.57"/>
<path d="M139.004 0V35.2H145.069V6.065H217.958V70.431C217.958 75.2172 217.015 79.9565 215.184 84.3783C213.352 88.8001 210.667 92.8179 207.283 96.2022C203.899 99.5865 199.881 102.271 195.459 104.103C191.037 105.934 186.298 106.877 181.512 106.877C176.726 106.877 171.986 105.934 167.565 104.103C163.143 102.271 159.125 99.5865 155.741 96.2022C152.356 92.8179 149.672 88.8001 147.84 84.3783C146.009 79.9565 145.066 75.2172 145.066 70.431V65.388H167.922V70.431C167.922 74.0337 169.353 77.4889 171.901 80.0363C174.448 82.5838 177.903 84.015 181.506 84.015C185.109 84.015 188.564 82.5838 191.111 80.0363C193.659 77.4889 195.09 74.0337 195.09 70.431V28.926H167.925V35.2H188.825V70.431C188.825 72.3708 188.054 74.2311 186.683 75.6028C185.311 76.9744 183.451 77.745 181.511 77.745C179.571 77.745 177.711 76.9744 176.339 75.6028C174.968 74.2311 174.197 72.3708 174.197 70.431V59.109H145.065H139V70.428C139 81.7028 143.479 92.5157 151.451 100.488C159.424 108.461 170.237 112.94 181.511 112.94C192.786 112.94 203.599 108.461 211.572 100.488C219.544 92.5157 224.023 81.7028 224.023 70.428V0H139.004Z" fill="#2B78CD"/>
<path d="M181.52 89.238C176.532 89.234 171.749 87.2512 168.221 83.7248C164.693 80.1983 162.708 75.4162 162.702 70.428H156.439C156.439 77.0788 159.081 83.4572 163.784 88.1601C168.487 92.8629 174.865 95.505 181.516 95.505C188.167 95.505 194.545 92.8629 199.248 88.1601C203.951 83.4572 206.593 77.0788 206.593 70.428V17.428H156.439V35.194H162.702V23.694H200.321V70.424C200.318 75.4105 198.336 80.1921 194.812 83.7194C191.287 87.2466 186.506 89.2314 181.52 89.238Z" fill="#2B78CD" fill-opacity="0.56"/>
</svg>
